<svg id="Component_5_1" data-name="Component 5 – 1" xmlns="http://www.w3.org/2000/svg" width="167" height="98.5" viewBox="0 0 167 98.5">
  <path id="Background" d="M46,70a7,7,0,1,1,0-14H7A7,7,0,1,1,7,42H47a7,7,0,0,0,0-14H22a7,7,0,0,1,0-14H62A7,7,0,1,1,62,0h98a7,7,0,0,1,0,14H120a7,7,0,1,1,0,14h22a7,7,0,0,1,0,14H131.826C126.951,42,123,45.134,123,49s6,7,6,7a7,7,0,0,1,0,14ZM153,35a7,7,0,1,1,7,7A7,7,0,0,1,153,35Z" transform="translate(0 20.5)" fill="#f3f7ff"/>
  <path id="Path" d="M29.119,0A12,12,0,1,0,52.881,0H82V26.693a3,3,0,0,1-3,3H3a3,3,0,0,1-3-3V0Z" transform="translate(42 68.807)" fill="#fff"/>
  <path id="Path-2" data-name="Path" d="M54,31a13,13,0,0,1-26,0q0-.349.018-.693H0L9.56,2.039A3,3,0,0,1,12.4,0H69.6A3,3,0,0,1,72.44,2.039L82,30.307H53.982Q54,30.651,54,31Z" transform="translate(42 37.5)" fill="#fff"/>
  <path id="Path-3" data-name="Path" d="M43.1,22.955A11.443,11.443,0,0,1,32,34,11.443,11.443,0,0,1,20.9,22.955c0-.18.005-1.358.016-1.536H0L8.161,1.575A2.554,2.554,0,0,1,10.587,0H53.413a2.554,2.554,0,0,1,2.426,1.575L64,21.419H43.082C43.092,21.6,43.1,22.775,43.1,22.955Z" transform="translate(51 46.5)" fill="#e8f0fe"/>
  <g id="Rectangle" transform="translate(42 37.5)" fill="none" stroke-linejoin="round" stroke-miterlimit="10">
    <path d="M9.56,2.039A3,3,0,0,1,12.4,0H69.6A3,3,0,0,1,72.44,2.039L82,30.307V57a3,3,0,0,1-3,3H3a3,3,0,0,1-3-3V30.307Z" stroke="none"/>
    <path d="M 12.40229797363281 2.5 C 12.18773651123047 2.5 11.99739837646484 2.636566162109375 11.92864990234375 2.839801788330078 L 2.5 30.71793365478516 L 2.5 57 C 2.5 57.27569961547852 2.724296569824219 57.5 3 57.5 L 79 57.5 C 79.27570343017578 57.5 79.5 57.27569961547852 79.5 57 L 79.5 30.71793365478516 L 70.07135009765625 2.839832305908203 C 70.00260162353516 2.636566162109375 69.81226348876953 2.5 69.59770202636719 2.5 L 12.40229797363281 2.5 M 12.40229797363281 0 L 69.59770202636719 0 C 70.88414764404297 0 72.02739715576172 0.8202171325683594 72.43956756591797 2.038848876953125 L 82 30.30663299560547 L 82 57 C 82 58.6568489074707 80.65685272216797 60 79 60 L 3 60 C 1.343147277832031 60 0 58.6568489074707 0 57 L 0 30.30663299560547 L 9.560432434082031 2.038848876953125 C 9.972602844238281 0.8202171325683594 11.11585235595703 0 12.40229797363281 0 Z" stroke="none" fill="#75a4fe"/>
  </g>
  <path id="Shape" d="M34.323,14a12.339,12.339,0,0,1-8.68-3.515A11.788,11.788,0,0,1,22.047,2c0-.7,0-2-1.876-2H48.384C46.6.043,46.6,1.316,46.6,2A11.788,11.788,0,0,1,43,10.485,12.339,12.339,0,0,1,34.323,14Z" transform="translate(48.574 67.5)" fill="none" stroke="#75a4fe" stroke-linecap="round" stroke-linejoin="round" stroke-miterlimit="10" stroke-width="2.5"/>
  <g id="Group_4901" data-name="Group 4901" transform="translate(-10797.5 2372)">
    <text id="_" data-name="?" transform="translate(10885.588 -2348)" fill="#75a4fe" font-size="24" font-family="Tajawal-Regular, Tajawal"><tspan x="-9.264" y="0">?</tspan></text>
    <g id="Ellipse_4" data-name="Ellipse 4" transform="translate(10866 -2371.118)" fill="none" stroke="#75a4fe" stroke-width="2.5">
      <circle cx="15" cy="15" r="15" stroke="none"/>
      <circle cx="15" cy="15" r="13.75" fill="none"/>
    </g>
  </g>
  <g id="Group_21184" data-name="Group 21184" transform="translate(-40.313 -46.178)">
    <circle id="Oval" cx="3.752" cy="3.752" r="3.752" transform="translate(118.822 100.685)" fill="none" stroke="#75a4fe" stroke-miterlimit="10" stroke-width="1.5"/>
    <path id="Line" d="M0,7.314,4.775,3.567,0,0" transform="translate(112 89.278)" fill="none" stroke="#75a4fe" stroke-linecap="round" stroke-linejoin="round" stroke-miterlimit="10" stroke-width="1.5"/>
    <path id="Line-2" data-name="Line" d="M-2.225,7.314-7,3.567-2.225,0" transform="translate(135.372 89.278)" fill="none" stroke="#75a4fe" stroke-linecap="round" stroke-linejoin="round" stroke-miterlimit="10" stroke-width="1.5"/>
  </g>
  <circle id="Oval-2" data-name="Oval" cx="3" cy="3" r="3" transform="translate(139.687 23.822)" fill="#75a4fe" stroke="#75a4fe" stroke-width="1"/>
  <path id="Line_5" data-name="Line 5" d="M4,4,.463,7.533,4,4,.354.354,4,4,7.642.354,4,4,7.533,7.533Z" transform="translate(126.091 22.878)" fill="none" stroke="#75a4fe" stroke-linecap="round" stroke-linejoin="round" stroke-miterlimit="10" stroke-width="1.5"/>
  <circle id="Oval-3" data-name="Oval" cx="3" cy="3" r="3" transform="translate(28.687 66.822)" fill="#75a4fe" stroke="#75a4fe" stroke-width="1"/>
  <path id="Line_5-2" data-name="Line 5" d="M3.769,3.769.456,7.076,3.769,3.769.354.354,3.769,3.769,7.178.354,3.769,3.769,7.076,7.076Z" transform="translate(14.091 66.107)" fill="#75a4fe" stroke="#75a4fe" stroke-linecap="round" stroke-linejoin="round" stroke-miterlimit="10" stroke-width="1.5"/>
</svg>
