<svg xmlns="http://www.w3.org/2000/svg" width="177.587" height="116.11" viewBox="0 0 177.587 116.11">
  <g id="search" transform="translate(-21.413 -43)">
    <path id="Background" d="M48.916,78.664a7.878,7.878,0,0,1,0-15.733H7.444a7.878,7.878,0,0,1,0-15.733H49.98a7.664,7.664,0,0,0,7.444-7.866,7.664,7.664,0,0,0-7.444-7.866H23.395A7.664,7.664,0,0,1,15.951,23.6a7.664,7.664,0,0,1,7.444-7.866H65.93a7.664,7.664,0,0,1-7.444-7.866A7.664,7.664,0,0,1,65.93,0H170.143a7.664,7.664,0,0,1,7.444,7.866,7.664,7.664,0,0,1-7.444,7.866H127.607a7.664,7.664,0,0,1,7.444,7.866,7.664,7.664,0,0,1-7.444,7.866H151a7.664,7.664,0,0,1,7.444,7.866A7.664,7.664,0,0,1,151,47.2H140.183c-5.184,0-9.386,3.522-9.386,7.866s6.38,7.866,6.38,7.866a7.878,7.878,0,0,1,0,15.733ZM162.7,39.332a7.455,7.455,0,1,1,14.888,0,7.455,7.455,0,1,1-14.888,0Z" transform="translate(21.413 73.596)" fill="rgba(108,152,162,0.2)"/>
    <path id="ground_line" d="M114.128.5ZM87,.5ZM13,.5ZM.128.5Z" transform="translate(60 155)" fill="none" stroke="#6c98a2" stroke-linecap="round" stroke-linejoin="round" stroke-miterlimit="10" stroke-width="2.5"/>
    <circle id="Oval" cx="3" cy="3" r="3" transform="translate(146 44)" fill="none" stroke="rgba(108,152,162,0.5)" stroke-miterlimit="10" stroke-width="2"/>
    <circle id="Oval-2" data-name="Oval" cx="3" cy="3" r="3" transform="translate(186 52)" fill="rgba(108,152,162,0.5)"/>
    <path id="Line_5" data-name="Line 5" d="M4.6,4.6.481,8.712,4.6,4.6.354.354,4.6,4.6,8.839.354,4.6,4.6,8.712,8.712Z" transform="translate(165.404 59.404)" fill="none" stroke="rgba(108,152,162,0.5)" stroke-linecap="round" stroke-linejoin="round" stroke-miterlimit="10" stroke-width="2.5"/>
    <path id="Line_4" data-name="Line 4" d="M3,3,0,6,3,3,0,0,3,3,6,0,3,3,6,6Z" transform="translate(61.404 74.596)" fill="none" stroke="rgba(108,152,162,0.5)" stroke-linecap="round" stroke-linejoin="round" stroke-miterlimit="10" stroke-width="2.5"/>
    <circle id="Oval-3" data-name="Oval" cx="3" cy="3" r="3" transform="translate(80 57)" fill="rgba(108,152,162,0.5)"/>
    <g id="Group_21187" data-name="Group 21187" transform="translate(-18 7.596)">
      <g id="Group_21189" data-name="Group 21189" transform="translate(6 5)">
        <g id="Group_21188" data-name="Group 21188" transform="translate(94.238 67)">
          <path id="Ellipse_739" d="M32.969,0A32.969,32.969,0,1,1,0,32.969,32.969,32.969,0,0,1,32.969,0Z" fill="none" stroke="#6c98a2" stroke-linecap="round" stroke-width="3"/>
          <path id="Line_181" d="M0,0,21.955,19.788" transform="translate(55.895 57.608)" fill="#fff" stroke="#6c98a2" stroke-linecap="round" stroke-linejoin="round" stroke-miterlimit="10" stroke-width="3"/>
        </g>
        <g id="Group_21186" data-name="Group 21186">
          <circle id="Oval-4" data-name="Oval" cx="5.5" cy="5.5" r="5.5" transform="translate(122 107)" fill="none" stroke="#6c98a2" stroke-miterlimit="10" stroke-width="2.5"/>
          <path id="Line" d="M0,10.722,7,5.229,0,0" transform="translate(112 90.278)" fill="none" stroke="#6c98a2" stroke-linecap="round" stroke-linejoin="round" stroke-miterlimit="10" stroke-width="2.5"/>
          <path id="Line-2" data-name="Line" d="M0,10.722-7,5.229,0,0" transform="translate(143 90.278)" fill="none" stroke="#6c98a2" stroke-linecap="round" stroke-linejoin="round" stroke-miterlimit="10" stroke-width="2.5"/>
        </g>
      </g>
    </g>
  </g>
</svg>
