<svg xmlns="http://www.w3.org/2000/svg" width="219.338" height="137.873" viewBox="0 0 219.338 137.873">
  <g id="Group_4" data-name="Group 4" transform="translate(-596.196 -2273)">
    <g id="Group_3" data-name="Group 3" transform="translate(-22 -6)">
      <g id="Group_2" data-name="Group 2">
        <g id="rate" transform="translate(621 2280)">
          <path id="Background" d="M60.416,100.069c-5.078,0-9.194-4.48-9.194-10.007s4.117-10.007,9.194-10.007H9.194C4.117,80.056,0,75.576,0,70.048S4.117,60.042,9.194,60.042H61.73c5.078,0,9.194-4.48,9.194-10.007S66.808,40.029,61.73,40.029H28.894c-5.078,0-9.194-4.48-9.194-10.007s4.117-10.007,9.194-10.007H81.43c-5.078,0-9.194-4.48-9.194-10.007S76.353,0,81.43,0H210.143c5.078,0,9.194,4.48,9.194,10.007s-4.117,10.007-9.194,10.007H157.608c5.078,0,9.194,4.48,9.194,10.007s-4.117,10.007-9.194,10.007H186.5c5.078,0,9.194,4.48,9.194,10.007S191.58,60.04,186.5,60.04H173.14c-6.4,0-11.588,4.48-11.588,10.007s7.88,10.007,7.88,10.007c5.078,0,9.194,4.48,9.194,10.007s-4.117,10.007-9.194,10.007ZM200.949,50.035c0-5.526,4.117-10.007,9.194-10.007s9.194,4.48,9.194,10.007-4.117,10.007-9.194,10.007S200.949,55.561,200.949,50.035Z" transform="translate(-2.804 31.481)" fill="rgba(108,152,162,0.2)"/>
          <path id="ground_line" d="M114.128.5ZM87,.5ZM13,.5ZM.128.5Z" transform="translate(57.326 135.123)" fill="none" stroke="#6c98a2" stroke-linecap="round" stroke-linejoin="round" stroke-miterlimit="10" stroke-width="2.5"/>
          <circle id="Oval" cx="3" cy="3" r="3" transform="translate(155.386 0)" fill="none" stroke="rgba(108,152,162,0.5)" stroke-miterlimit="10" stroke-width="2"/>
          <circle id="Oval-2" data-name="Oval" cx="3" cy="3" r="3" transform="translate(195.666 14)" fill="rgba(108,152,162,0.5)"/>
          <path id="Line_5" data-name="Line 5" d="M4.6,4.6.481,8.712,4.6,4.6.354.354,4.6,4.6,8.839.354,4.6,4.6,8.712,8.712Z" transform="translate(166.395 14.852)" fill="none" stroke="rgba(108,152,162,0.5)" stroke-linecap="round" stroke-linejoin="round" stroke-miterlimit="10" stroke-width="2.5"/>
          <path id="Line_4" data-name="Line 4" d="M3,3,0,6,3,3,0,0,3,3,6,0,3,3,6,6Z" transform="translate(45.857 37.353)" fill="none" stroke="rgba(108,152,162,0.5)" stroke-linecap="round" stroke-linejoin="round" stroke-miterlimit="10" stroke-width="2.5"/>
          <circle id="Oval-3" data-name="Oval" cx="3" cy="3" r="3" transform="translate(59.952 20)" fill="rgba(108,152,162,0.5)"/>
          <g id="Group_21192" data-name="Group 21192" transform="translate(93.277 51.301)">
            <g id="Group_1" data-name="Group 1" transform="translate(1 0)">
              <path id="Line" d="M6.411,0,0,5.313l6.411,5.408" transform="matrix(0.017, -1, 1, 0.017, 0, 6.41)" fill="none" stroke="#6c98a2" stroke-linecap="round" stroke-linejoin="round" stroke-miterlimit="10" stroke-width="2.5"/>
              <path id="Line-2" data-name="Line" d="M6.411,0,0,5.313l6.411,5.408" transform="matrix(0.017, -1, 1, 0.017, 25.067, 6.41)" fill="none" stroke="#6c98a2" stroke-linecap="round" stroke-linejoin="round" stroke-miterlimit="10" stroke-width="2.5"/>
              <path id="Line-3" data-name="Line" d="M0,0,.013,7.055,0,14.236" transform="matrix(0.017, -1, 1, 0.017, 10.832, 19.977)" fill="none" stroke="#6c98a2" stroke-linecap="round" stroke-linejoin="round" stroke-miterlimit="10" stroke-width="2.5"/>
            </g>
          </g>
        </g>
        <g id="COCO_Line_User" data-name="COCO/Line/User" transform="translate(690.938 2311.514)">
          <path id="Vector" d="M84.358,38.2c.181-12.646-10.016-23.557-24.115-25.8l-1.254-.181a116.846,116.846,0,0,0-33.617,0l-1.254.181C10.018,14.644-.179,25.554,0,38.2c-.1,5.446,4.8,9.939,10.973,10.053H73.337C79.525,48.163,84.459,43.663,84.358,38.2Z" transform="translate(0 49.816)" fill="none" stroke="#6c98a2" stroke-width="3"/>
          <path id="Vector-2" data-name="Vector" d="M2.917,28.22c.281,15.866,12.814,28.492,28,28.209,15.185.284,27.717-12.343,28-28.209C58.637,12.351,46.1-.28,30.916,0,15.728-.28,3.195,12.351,2.917,28.22Z" transform="translate(11.373 0.001)" fill="none" stroke="#6c98a2" stroke-width="3"/>
        </g>
      </g>
    </g>
  </g>
</svg>
