<svg xmlns="http://www.w3.org/2000/svg" width="96.248" height="19.179" viewBox="0 0 96.248 19.179">
  <path id="Icon_ionic-ios-arrow-round-forward" data-name="Icon ionic-ios-arrow-round-forward" d="M46.194,11.619a1.305,1.305,0,0,0-.01,1.838l6.073,6.083h-90.6a1.294,1.294,0,0,0-1.288,1.3,1.294,1.294,0,0,0,1.288,1.3H52.247l-6.073,6.083a1.315,1.315,0,0,0,.01,1.838,1.293,1.293,0,0,0,1.828-.01l8.23-8.29h0a1.458,1.458,0,0,0,.27-.41,1.239,1.239,0,0,0,.1-.5,1.3,1.3,0,0,0-.37-.909l-8.23-8.29A1.272,1.272,0,0,0,46.194,11.619Z" transform="translate(39.636 -11.252)" fill="#fff"/>
</svg>
