<svg xmlns="http://www.w3.org/2000/svg" width="67.753" height="13.501" viewBox="0 0 67.753 13.501">
  <path id="Icon_ionic-ios-arrow-round-forward" data-name="Icon ionic-ios-arrow-round-forward" d="M-32.3,11.51a.919.919,0,0,1,.007,1.294l-4.275,4.282H27.211a.914.914,0,0,1,0,1.828H-36.563l4.275,4.282a.925.925,0,0,1-.007,1.294.91.91,0,0,1-1.287-.007l-5.794-5.836h0a1.026,1.026,0,0,1-.19-.288.872.872,0,0,1-.07-.352.916.916,0,0,1,.26-.64l5.794-5.836A.9.9,0,0,1-32.3,11.51Z" transform="translate(39.636 -11.252)"/>
</svg>
