<svg xmlns="http://www.w3.org/2000/svg" width="20.168" height="20.168" viewBox="0 0 20.168 20.168">
  <g id="Chat" transform="translate(1.168 1)">
    <path id="Stroke_4" data-name="Stroke 4" d="M15.364,15.363a9.006,9.006,0,0,1-10.156,1.8,3.643,3.643,0,0,0-1.279-.358c-1.068.006-2.4,1.042-3.089.352s.346-2.022.346-3.1a3.6,3.6,0,0,0-.352-1.273,9,9,0,1,1,14.531,2.572Z" transform="translate(0 0)" fill="none" stroke="#000" stroke-linecap="round" stroke-linejoin="round" stroke-miterlimit="10" stroke-width="2"/>
    <path id="Stroke_11" data-name="Stroke 11" d="M.5.5H.5" transform="translate(12.05 8.872)" fill="none" stroke="#000" stroke-linecap="round" stroke-linejoin="round" stroke-miterlimit="10" stroke-width="2"/>
    <path id="Stroke_13" data-name="Stroke 13" d="M.5.5H.5" transform="translate(8.442 8.872)" fill="none" stroke="#000" stroke-linecap="round" stroke-linejoin="round" stroke-miterlimit="10" stroke-width="2"/>
    <path id="Stroke_15" data-name="Stroke 15" d="M.5.5H.5" transform="translate(4.834 8.872)" fill="none" stroke="#000" stroke-linecap="round" stroke-linejoin="round" stroke-miterlimit="10" stroke-width="2"/>
  </g>
</svg>
