<svg xmlns="http://www.w3.org/2000/svg" width="31" height="31" viewBox="0 0 31 31">
  <g id="إلغاء" transform="translate(0.374)">
    <g id="Group_197" data-name="Group 197">
      <circle id="Ellipse_10" data-name="Ellipse 10" cx="15.5" cy="15.5" r="15.5" transform="translate(-0.374)" fill="#fff"/>
    </g>
    <g id="Group_69" data-name="Group 69" transform="translate(9 9)">
      <path id="close" d="M12.335,13.721l0,0L7,8.306,1.668,13.72h0A.971.971,0,0,1,.985,14,.992.992,0,0,1,0,13a1,1,0,0,1,.276-.694h0L5.5,7,.343,1.758A1,1,0,0,1,0,1,.993.993,0,0,1,.985,0a.969.969,0,0,1,.681.279l0,0L7,5.695,12.332.28h0A.971.971,0,0,1,13.015,0,.993.993,0,0,1,14,1a1,1,0,0,1-.276.694h0L8.5,7l5.157,5.24A1.006,1.006,0,0,1,14,13a.993.993,0,0,1-.985,1A.97.97,0,0,1,12.335,13.721Z" transform="translate(-0.374)"/>
    </g>
  </g>
</svg>
